<?xml version="1.0" standalone="no"?>
<!DOCTYPE svg PUBLIC "-//W3C//DTD SVG 20010904//EN"
 "http://www.w3.org/TR/2001/REC-SVG-20010904/DTD/svg10.dtd">
<svg version="1.0" xmlns="http://www.w3.org/2000/svg"
 width="500.000000pt" height="500.000000pt" viewBox="0 0 500.000000 500.000000"
 preserveAspectRatio="xMidYMid meet">
<metadata>
Created by potrace 1.14, written by Peter Selinger 2001-2017
</metadata>
<g transform="translate(0.000000,500.000000) scale(0.100000,-0.100000)"
fill="#000000" stroke="none">
<path d="M2329 4876 c-2 -2 -36 -6 -74 -10 -71 -7 -92 -10 -180 -26 -280 -52
-542 -155 -810 -319 -22 -14 -42 -27 -45 -30 -3 -4 -27 -21 -55 -40 -145 -100
-345 -288 -469 -442 -274 -341 -457 -773 -511 -1204 -14 -113 -16 -162 -16
-300 0 -211 9 -310 47 -495 9 -41 18 -84 20 -94 22 -114 124 -381 203 -531 52
-99 144 -252 160 -265 3 -3 22 -27 40 -55 19 -27 37 -52 40 -55 4 -3 28 -32
55 -65 138 -167 390 -382 581 -494 164 -97 366 -187 515 -230 25 -7 56 -17 70
-22 20 -6 57 -15 100 -24 60 -12 89 -18 105 -20 11 -2 54 -9 95 -16 83 -14
438 -18 540 -7 107 13 163 22 240 39 25 6 53 12 64 15 117 23 324 100 476 175
368 183 683 461 914 809 97 145 171 291 257 505 40 100 98 333 114 455 3 25 8
52 10 60 16 58 22 406 10 535 -53 555 -297 1075 -690 1470 -142 143 -228 210
-465 365 -84 55 -298 153 -425 195 -159 52 -293 85 -415 100 -30 4 -64 9 -75
12 -25 6 -420 14 -426 9z"/>
</g>
</svg>
