<?xml version="1.0" encoding="UTF-8"?>
<!DOCTYPE svg PUBLIC "-//W3C//DTD SVG 1.1//EN" "http://www.w3.org/Graphics/SVG/1.1/DTD/svg11.dtd">
<svg xmlns="http://www.w3.org/2000/svg" xmlns:xlink="http://www.w3.org/1999/xlink">
  <symbol id="instagram" viewBox="0 0 37 37" fill="none" xmlns="http://www.w3.org/2000/svg">
    <path d="M18.5 3.33144C23.443 3.33144 24.0283 3.35312 25.9723 3.43984C27.7789 3.51934 28.7545 3.82285 29.4049 4.07578C30.2648 4.4082 30.8863 4.81289 31.5295 5.45605C32.1799 6.10645 32.5773 6.7207 32.9098 7.58066C33.1627 8.23105 33.4662 9.21387 33.5457 11.0133C33.6324 12.9645 33.6541 13.5498 33.6541 18.4855C33.6541 23.4285 33.6324 24.0139 33.5457 25.9578C33.4662 27.7645 33.1627 28.74 32.9098 29.3904C32.5773 30.2504 32.1727 30.8719 31.5295 31.515C30.8791 32.1654 30.2648 32.5629 29.4049 32.8953C28.7545 33.1482 27.7717 33.4518 25.9723 33.5312C24.0211 33.618 23.4357 33.6396 18.5 33.6396C13.557 33.6396 12.9717 33.618 11.0277 33.5312C9.22109 33.4518 8.24551 33.1482 7.59512 32.8953C6.73516 32.5629 6.11367 32.1582 5.47051 31.515C4.82012 30.8646 4.42266 30.2504 4.09023 29.3904C3.8373 28.74 3.53379 27.7572 3.4543 25.9578C3.36758 24.0066 3.3459 23.4213 3.3459 18.4855C3.3459 13.5426 3.36758 12.9572 3.4543 11.0133C3.53379 9.20664 3.8373 8.23105 4.09023 7.58066C4.42266 6.7207 4.82734 6.09922 5.47051 5.45605C6.1209 4.80566 6.73516 4.4082 7.59512 4.07578C8.24551 3.82285 9.22832 3.51934 11.0277 3.43984C12.9717 3.35312 13.557 3.33144 18.5 3.33144ZM18.5 0C13.4775 0 12.8488 0.0216797 10.876 0.108398C8.91035 0.195117 7.55898 0.513086 6.38828 0.968359C5.16699 1.44531 4.13359 2.07402 3.10742 3.10742C2.07402 4.13359 1.44531 5.16699 0.968359 6.38105C0.513086 7.55898 0.195117 8.90312 0.108398 10.8687C0.0216797 12.8488 0 13.4775 0 18.5C0 23.5225 0.0216797 24.1512 0.108398 26.124C0.195117 28.0896 0.513086 29.441 0.968359 30.6117C1.44531 31.833 2.07402 32.8664 3.10742 33.8926C4.13359 34.9188 5.16699 35.5547 6.38105 36.0244C7.55898 36.4797 8.90312 36.7977 10.8687 36.8844C12.8416 36.9711 13.4703 36.9928 18.4928 36.9928C23.5152 36.9928 24.1439 36.9711 26.1168 36.8844C28.0824 36.7977 29.4338 36.4797 30.6045 36.0244C31.8186 35.5547 32.852 34.9188 33.8781 33.8926C34.9043 32.8664 35.5402 31.833 36.01 30.6189C36.4652 29.441 36.7832 28.0969 36.8699 26.1313C36.9566 24.1584 36.9783 23.5297 36.9783 18.5072C36.9783 13.4848 36.9566 12.8561 36.8699 10.8832C36.7832 8.91758 36.4652 7.56621 36.01 6.39551C35.5547 5.16699 34.926 4.13359 33.8926 3.10742C32.8664 2.08125 31.833 1.44531 30.6189 0.975586C29.441 0.520312 28.0969 0.202344 26.1313 0.115625C24.1512 0.0216797 23.5225 0 18.5 0Z" fill="currentColor"/>
    <path d="M18.5 8.99707C13.2535 8.99707 8.99707 13.2535 8.99707 18.5C8.99707 23.7465 13.2535 28.0029 18.5 28.0029C23.7465 28.0029 28.0029 23.7465 28.0029 18.5C28.0029 13.2535 23.7465 8.99707 18.5 8.99707ZM18.5 24.6643C15.0963 24.6643 12.3357 21.9037 12.3357 18.5C12.3357 15.0963 15.0963 12.3357 18.5 12.3357C21.9037 12.3357 24.6643 15.0963 24.6643 18.5C24.6643 21.9037 21.9037 24.6643 18.5 24.6643Z" fill="currentColor"/>
    <path d="M30.5973 8.62139C30.5973 9.84991 29.6 10.8399 28.3787 10.8399C27.1502 10.8399 26.1602 9.84268 26.1602 8.62139C26.1602 7.39287 27.1574 6.40283 28.3787 6.40283C29.6 6.40283 30.5973 7.4001 30.5973 8.62139Z" fill="currentColor"/>
  </symbol>
  <symbol id="vk" viewBox="0 0 37 38" fill="none" xmlns="http://www.w3.org/2000/svg">
    <path fill-rule="evenodd" clip-rule="evenodd" d="M2.59617 2.66633C0 5.33267 0 9.6254 0 18.2083V19.7917C0 28.3733 0 32.6673 2.59617 35.3337C5.19233 38 9.3721 38 17.7292 38H19.2708C27.6267 38 31.8077 38 34.4038 35.3337C37 32.6673 37 28.3746 37 19.7917V18.2083C37 9.62667 37 5.33267 34.4038 2.66633C31.8077 0 27.6279 0 19.2708 0H17.7292C9.37333 0 5.19233 0 2.59617 2.66633ZM7.32352 11.875H10.0208C10.7102 11.875 10.9692 12.1853 11.2282 12.9529C12.5479 16.8999 14.7728 20.3503 15.6867 20.3503C16.0308 20.3503 16.1875 20.1881 16.1875 19.2926V15.2127C16.1257 14.0512 15.7306 13.5488 15.438 13.1767C15.2573 12.947 15.1157 12.7669 15.1157 12.5121C15.1157 12.2018 15.3735 11.875 15.8014 11.875H20.0416C20.6139 11.875 20.8125 12.1891 20.8125 12.8934V18.3831C20.8125 18.9696 21.0604 19.1761 21.2318 19.1761C21.5747 19.1761 21.8608 18.9696 22.4898 18.3236C24.4335 16.093 25.805 12.6591 25.805 12.6591C25.9764 12.2474 26.2934 11.875 26.9792 11.875H29.6764C30.4929 11.875 30.6656 12.3069 30.4929 12.8934C30.1501 14.5084 26.8632 19.2635 26.8632 19.2635C26.5771 19.7334 26.4624 19.9677 26.8632 20.4959C27.0047 20.6994 27.3065 21.0032 27.6515 21.3506C28.0044 21.7058 28.4026 22.1066 28.7206 22.4922C29.8799 23.8311 30.7531 24.9609 30.9961 25.7387C31.2193 26.5202 30.8333 26.9167 30.0625 26.9167H27.3639C26.6415 26.9167 26.278 26.5011 25.4919 25.6025C25.1588 25.2217 24.7498 24.7541 24.2054 24.1946C22.6033 22.61 21.9188 22.4048 21.518 22.4048C20.9753 22.4048 20.8125 22.5631 20.8125 23.3548V25.84C20.8125 26.5202 20.6003 26.9167 18.8848 26.9167C16.0272 26.9167 12.8858 25.1345 10.6572 21.8462C7.31242 17.0329 6.39852 13.3925 6.39852 12.6591C6.39852 12.2474 6.55268 11.875 7.32352 11.875Z" fill="currentColor"/>
  </symbol>
  <symbol id="telegram" iewBox="0 0 37 38" fill="none" xmlns="http://www.w3.org/2000/svg">
    <path fill-rule="evenodd" clip-rule="evenodd" d="M37 19C37 29.4934 28.7173 38 18.5 38C8.28273 38 0 29.4934 0 19C0 8.50659 8.28273 0 18.5 0C28.7173 0 37 8.50659 37 19ZM19.163 14.0264C17.3636 14.795 13.7673 16.3859 8.37416 18.7991C7.49841 19.1568 7.03964 19.5067 6.99788 19.8489C6.9273 20.4271 7.63234 20.6548 8.59243 20.9648C8.72303 21.007 8.85834 21.0507 8.99707 21.097C9.94165 21.4124 11.2123 21.7813 11.8728 21.7959C12.472 21.8092 13.1407 21.5555 13.8791 21.0348C18.918 17.5415 21.5192 15.7757 21.6825 15.7377C21.7977 15.7108 21.9573 15.6771 22.0655 15.7758C22.1737 15.8746 22.163 16.0616 22.1516 16.1117C22.0817 16.4175 19.3142 19.06 17.882 20.4275C17.4355 20.8539 17.1188 21.1562 17.054 21.2253C16.909 21.38 16.7612 21.5264 16.6191 21.667C15.7416 22.5358 15.0835 23.1874 16.6556 24.2513C17.411 24.7626 18.0155 25.1854 18.6186 25.6072C19.2772 26.0678 19.9342 26.5273 20.7842 27.0995C21.0007 27.2453 21.2075 27.3967 21.409 27.5442C22.1754 28.1054 22.8641 28.6096 23.7148 28.5292C24.2092 28.4825 24.7198 28.0051 24.9791 26.5813C25.592 23.2164 26.7967 15.9256 27.0751 12.9213C27.0995 12.658 27.0688 12.3212 27.0442 12.1733C27.0195 12.0254 26.968 11.8147 26.7809 11.6587C26.5592 11.474 26.217 11.4351 26.064 11.4378C25.3682 11.4504 24.3006 11.8317 19.163 14.0264Z" fill="currentColor"/>
  </symbol>
  <symbol id="twitter" viewBox="0 0 17 15" fill="none" xmlns="http://www.w3.org/2000/svg">
    <path d="M14.0059 4.79536C14.6163 4.41036 15.0205 3.88487 15.2185 3.21656C14.6246 3.54024 14.0331 3.76223 13.4423 3.88487C12.9111 3.29806 12.2387 3 11.4326 3C10.6446 3 9.97898 3.28409 9.43576 3.83675C8.89557 4.39328 8.62283 5.06936 8.62283 5.85875C8.62283 6.0986 8.6523 6.31283 8.71123 6.49446C6.38727 6.41296 4.46373 5.42253 2.94817 3.51617C2.69129 3.98267 2.56286 4.45771 2.56286 4.94904C2.56286 5.95888 2.97763 6.75915 3.80568 7.34673C3.33348 7.3056 2.91719 7.18296 2.56286 6.98192C2.56286 7.70301 2.76911 8.30535 3.18238 8.83549C3.59716 9.3602 4.12979 9.69475 4.78029 9.83757C4.54457 9.89966 4.29601 9.92916 4.04064 9.92916C3.80492 9.92916 3.63795 9.90898 3.53898 9.86474C3.71275 10.4523 4.04064 10.9289 4.51435 11.2937C4.98655 11.6601 5.52976 11.8534 6.14021 11.8704C5.13387 12.6816 3.98322 13.0829 2.68147 13.0829C2.36265 13.0829 2.13675 13.0782 2 13.0534C3.28211 13.9088 4.70927 14.3333 6.2883 14.3333C7.90434 14.3333 9.33226 13.9126 10.5751 13.0712C11.8179 12.2345 12.7351 11.2021 13.3244 9.9866C13.9167 8.77262 14.2099 7.50896 14.2099 6.18942V5.82615C14.7825 5.38372 15.2457 4.8854 15.6 4.33507C15.0863 4.5625 14.5551 4.71696 14.0059 4.79536Z" fill="currentColor"/>
    <path d="M14.0059 4.79536C14.6163 4.41036 15.0205 3.88487 15.2185 3.21656C14.6246 3.54024 14.0331 3.76223 13.4423 3.88487C12.9111 3.29806 12.2387 3 11.4326 3C10.6446 3 9.97898 3.28409 9.43576 3.83675C8.89557 4.39328 8.62283 5.06936 8.62283 5.85875C8.62283 6.0986 8.6523 6.31283 8.71123 6.49446C6.38727 6.41296 4.46373 5.42253 2.94817 3.51617C2.69129 3.98267 2.56286 4.45771 2.56286 4.94904C2.56286 5.95888 2.97763 6.75915 3.80568 7.34673C3.33348 7.3056 2.91719 7.18296 2.56286 6.98192C2.56286 7.70301 2.76911 8.30535 3.18238 8.83549C3.59716 9.3602 4.12979 9.69475 4.78029 9.83757C4.54457 9.89966 4.29601 9.92916 4.04064 9.92916C3.80492 9.92916 3.63795 9.90898 3.53898 9.86474C3.71275 10.4523 4.04064 10.9289 4.51435 11.2937C4.98655 11.6601 5.52976 11.8534 6.14021 11.8704C5.13387 12.6816 3.98322 13.0829 2.68147 13.0829C2.36265 13.0829 2.13675 13.0782 2 13.0534C3.28211 13.9088 4.70927 14.3333 6.2883 14.3333C7.90434 14.3333 9.33226 13.9126 10.5751 13.0712C11.8179 12.2345 12.7351 11.2021 13.3244 9.9866C13.9167 8.77262 14.2099 7.50896 14.2099 6.18942V5.82615C14.7825 5.38372 15.2457 4.8854 15.6 4.33507C15.0863 4.5625 14.5551 4.71696 14.0059 4.79536Z" fill="currentColor"/>
  </symbol>
  <symbol id="youtube" viewBox="0 0 17 14" fill="none" xmlns="http://www.w3.org/2000/svg">
    <path fill-rule="evenodd" clip-rule="evenodd" d="M13.3471 3.18801C14.5118 3.23107 15.0786 4.43559 15.1581 5.39077C15.3205 7.39709 15.3205 8.66349 15.159 10.6707C15.0813 11.6259 14.3628 12.8465 13.3489 13.0232C10.117 13.2744 6.28254 13.243 2.93192 13.0232C1.88585 12.8905 1.19947 11.6259 1.12182 10.6707C0.959392 8.66439 0.959392 7.52263 1.12182 5.51631C1.19858 4.56114 1.90279 3.30371 2.93012 3.18801C6.24148 2.90819 10.0946 2.96827 13.3471 3.18801ZM6.35393 5.49478V10.6384L10.8167 8.06704L6.35393 5.49478Z" fill="currentColor"/>
    <path fill-rule="evenodd" clip-rule="evenodd" d="M13.3471 3.18801C14.5118 3.23107 15.0786 4.43559 15.1581 5.39077C15.3205 7.39709 15.3205 8.66349 15.159 10.6707C15.0813 11.6259 14.3628 12.8465 13.3489 13.0232C10.117 13.2744 6.28254 13.243 2.93192 13.0232C1.88585 12.8905 1.19947 11.6259 1.12182 10.6707C0.959392 8.66439 0.959392 7.52263 1.12182 5.51631C1.19858 4.56114 1.90279 3.30371 2.93012 3.18801C6.24148 2.90819 10.0946 2.96827 13.3471 3.18801ZM6.35393 5.49478V10.6384L10.8167 8.06704L6.35393 5.49478Z" fill="currentColor"/>
  </symbol>
  <symbol id="close" viewBox="0 0 18 18" fill="none" xmlns="http://www.w3.org/2000/svg">
    <path fill-rule="evenodd" clip-rule="evenodd" d="M9.02929 7.52444L15.7968 0.756955C16.0119 0.572742 16.2889 0.47689 16.5719 0.487821C16.8549 0.498752 17.1234 0.616068 17.3236 0.816325C17.5239 1.01658 17.6412 1.28503 17.6521 1.56803C17.6631 1.85102 17.5668 2.12772 17.3826 2.34283L17.3735 2.35341L10.6154 9.11075L17.383 15.8783C17.5672 16.0934 17.6631 16.3705 17.6521 16.6535C17.6412 16.9365 17.5239 17.2049 17.3236 17.4052C17.1234 17.6054 16.8549 17.7227 16.5719 17.7337C16.2889 17.7446 16.0122 17.6484 15.7971 17.4641L15.7865 17.4551L9.02912 10.6969L2.2667 17.45C2.16676 17.5652 2.04443 17.6589 1.90712 17.7253C1.76762 17.7928 1.61567 17.8307 1.46081 17.8367C1.30596 17.8427 1.15153 17.8166 1.00724 17.7601C0.862946 17.7035 0.731895 17.6178 0.622311 17.5082C0.512729 17.3986 0.426981 17.2676 0.37045 17.1233C0.313919 16.979 0.287825 16.8246 0.293807 16.6697C0.299788 16.5148 0.337717 16.3629 0.405209 16.2234C0.471658 16.086 0.565353 15.9637 0.680567 15.8637L7.44298 9.11058L0.675419 2.33373C0.491206 2.11862 0.395347 1.84158 0.406278 1.55858C0.417209 1.27559 0.534526 1.00714 0.734783 0.806882C0.93504 0.606625 1.20349 0.489309 1.48648 0.478378C1.76948 0.467447 2.04618 0.563706 2.26129 0.74792L2.27196 0.757058L9.02929 7.52444Z" fill="currentColor"/>
  </symbol>
  <symbol id="arrow-right" viewBox="0 0 40 40" fill="none" xmlns="http://www.w3.org/2000/svg">
    <path d="M16.5913 33.6024L28.135 21.8651C29.2883 20.6924 29.2883 18.7937 28.135 17.6242L16.5913 5.88695C15.4282 4.70435 13.5447 4.70435 12.3848 5.88695C11.2218 7.06954 11.2218 8.98469 12.3848 10.164L21.8058 19.743L12.3848 29.322C11.2218 30.5046 11.2218 32.4198 12.3848 33.5991C13.5447 34.7817 15.4282 34.7817 16.5913 33.6024Z" fill="currentColor"/>
  </symbol>
  <symbol id="arrow-left" viewBox="0 0 40 40" fill="none" xmlns="http://www.w3.org/2000/svg">
    <path d="M23.4087 33.6024L11.865 21.8651C10.7117 20.6924 10.7117 18.7937 11.865 17.6242L23.4087 5.88695C24.5718 4.70435 26.4553 4.70435 27.6152 5.88695C28.7782 7.06954 28.7782 8.98469 27.6152 10.164L18.1942 19.743L27.6152 29.322C28.7782 30.5046 28.7782 32.4198 27.6152 33.5991C26.4553 34.7817 24.5718 34.7817 23.4087 33.6024Z" fill="currentColor"/>
  </symbol>

  <symbol id="arrow-up-down" viewBox="0 0 24 16" fill="none" xmlns="http://www.w3.org/2000/svg">
   <path d="M11.7082 9.76351L20.5089 0.750003L23.1873 3.49325L11.7082 15.25L0.229003 3.49325L2.90748 0.750004L11.7082 9.76351Z" fill="#1F3C48"/>
  </symbol>
  <symbol id="delete-icon" viewBox="0 0 12 16" fill="none" xmlns="http://www.w3.org/2000/svg">
   <path d="M9 6V14H3V6H9ZM8 0H3.9L2.9 1H0V3H12V1H9L8 0ZM11 4H1V14C1 15.1 1.9 16 3 16H9C10.1 16 11 15.1 11 14V4Z" fill="currentColor"/>
  </symbol>
  <symbol id="edit-icon" viewBox="0 0 14 14" fill="none" xmlns="http://www.w3.org/2000/svg">
   <path d="M12 6.2L7.8 2L0 9.8V14H4.2L12 6.2ZM2 11.8V10.3L7.6 4.7L9 6.2L3.4 11.8H2ZM8.5 1.3L9.2 0.6C10 -0.2 11.3 -0.2 12 0.6L13.4 2C14.2 2.8 14.2 4 13.4 4.8L12.7 5.5L8.5 1.3Z" fill="currentColor"/>
  </symbol>
  <symbol id="plus-icon" viewBox="0 0 12 13" fill="none" xmlns="http://www.w3.org/2000/svg">
   <path d="M11.8327 7.33317H6.83268V12.3332H5.16602V7.33317H0.166016V5.6665H5.16602V0.666504H6.83268V5.6665H11.8327V7.33317Z" fill="currentColor"/>
  </symbol>
  <symbol id="search" viewBox="0 0 19 19" fill="none" xmlns="http://www.w3.org/2000/svg">
   <path d="M8 16C9.77498 15.9996 11.4988 15.4054 12.897 14.312L17.293 18.708L18.707 17.294L14.311 12.898C15.405 11.4997 15.9996 9.77544 16 8C16 3.589 12.411 0 8 0C3.589 0 0 3.589 0 8C0 12.411 3.589 16 8 16ZM8 2C11.309 2 14 4.691 14 8C14 11.309 11.309 14 8 14C4.691 14 2 11.309 2 8C2 4.691 4.691 2 8 2Z" fill="#1F3C48"/>
  </symbol>
  <symbol id="download" viewBox="0 0 17 17" fill="none" xmlns="http://www.w3.org/2000/svg">
   <path d="M12 9.375H9.375V0.625H7.625V9.375H5L8.5 12.875L12 9.375ZM0.625 14.625V16.375H16.375V14.625H0.625Z" fill="#1F3C48"/>
  </symbol>
  <symbol id="modal-close" viewBox="0 0 14 14" fill="none" xmlns="http://www.w3.org/2000/svg">
   <path d="M14 13.1751L13.1751 14L7 7.82486L0.824864 14L0 13.1751L6.17514 7L0 0.824866L0.824864 1.90735e-06L7 6.17514L13.1751 1.90735e-06L14 0.824866L7.82486 7L14 13.1751Z" fill="#40748B"/>
  </symbol>
  <symbol id="modal-plus" viewBox="0 0 9 9" fill="none" xmlns="http://www.w3.org/2000/svg">
   <path d="M8.29183 5.04134H5.04183V8.29134H3.9585V5.04134H0.708496V3.95801H3.9585V0.708008H5.04183V3.95801H8.29183V5.04134Z" fill="#1F3C48"/>
  </symbol>
  <symbol id="delete-document" viewBox="0 0 14 15" fill="none" xmlns="http://www.w3.org/2000/svg">
   <path d="M14 13.6751L13.1751 14.5L7 8.32487L0.824864 14.5L0 13.6751L6.17513 7.5L0 1.32487L0.824864 0.500004L7 6.67514L13.1751 0.500004L14 1.32487L7.82486 7.5L14 13.6751Z" fill="#757575"/>
  </symbol>
  <symbol id="accept-icon" viewBox="0 0 12 10" fill="none" xmlns="http://www.w3.org/2000/svg">
   <path d="M3.99994 7.30007L1.19994 4.50007L0.266602 5.4334L3.99994 9.16673L11.9999 1.16673L11.0666 0.233398L3.99994 7.30007Z" fill="#1F3C48"/>
  </symbol>


  <symbol id="logo" viewBox="0 0 194 44" fill="none" xmlns="http://www.w3.org/2000/svg">
    <path d="M113.432 5.29347H105.17V15.9082H101.442V1.89673H113.434V5.29347H113.432Z" fill="currentColor"/>
    <path d="M130.025 8.90109C130.025 13.1216 126.765 16.2717 122.347 16.2717C117.945 16.2717 114.698 13.1216 114.698 8.90109C114.698 4.68061 117.945 1.53052 122.347 1.53052C126.762 1.53052 130.025 4.68061 130.025 8.90109ZM118.588 8.90109C118.588 11.169 120.196 12.7605 122.347 12.7605C124.498 12.7605 126.119 11.1715 126.119 8.90109C126.119 6.63322 124.495 5.04166 122.347 5.04166C120.198 5.04166 118.588 6.63322 118.588 8.90109Z" fill="currentColor"/>
    <path d="M147.351 8.90098C147.351 13.1062 144.397 16.2716 140.492 16.2716C138.59 16.2716 137.244 15.5342 136.323 14.4511V21.6921H132.521V1.90924H136.249V3.45501C137.17 2.31345 138.531 1.53296 140.476 1.53296C144.397 1.53042 147.351 4.69577 147.351 8.90098ZM136.133 8.90098C136.133 11.1129 137.61 12.7604 139.774 12.7604C142.025 12.7604 143.43 11.0417 143.43 8.90098C143.43 6.76278 142.025 5.04156 139.774 5.04156C137.61 5.04156 136.133 6.69159 136.133 8.90098Z" fill="currentColor"/>
    <path d="M156.863 5.67952C160.812 5.67952 162.917 7.70336 162.917 10.7518C162.917 13.8586 160.81 15.9104 156.819 15.9104H149.947V1.89893H153.675V5.67952H156.863ZM156.775 12.5721C158.268 12.5721 159.114 11.9518 159.114 10.7518C159.114 9.56698 158.265 8.94405 156.775 8.94405H153.675V12.5721H156.775Z" fill="currentColor"/>
    <path d="M168.343 15.9104H164.615V1.89893H168.343V15.9104Z" fill="currentColor"/>
    <path d="M116.27 30.2486C116.27 34.4539 113.316 37.6192 109.41 37.6192C107.509 37.6192 106.163 36.8819 105.242 35.7988V43.0397H101.439V23.2569H105.167V24.8027C106.089 23.6612 107.45 22.8806 109.395 22.8806C113.316 22.8781 116.27 26.0434 116.27 30.2486ZM105.052 30.2486C105.052 32.4606 106.528 34.1081 108.692 34.1081C110.944 34.1081 112.348 32.3894 112.348 30.2486C112.348 28.1079 110.944 26.3892 108.692 26.3892C106.528 26.3892 105.052 28.0367 105.052 30.2486Z" fill="currentColor"/>
    <path d="M133.334 30.2475C133.334 34.468 130.074 37.6181 125.656 37.6181C121.254 37.6181 118.007 34.468 118.007 30.2475C118.007 26.0271 121.254 22.877 125.656 22.877C130.071 22.877 133.334 26.0271 133.334 30.2475ZM121.897 30.2475C121.897 32.5154 123.505 34.107 125.656 34.107C127.807 34.107 129.428 32.5179 129.428 30.2475C129.428 27.9797 127.804 26.3881 125.656 26.3881C123.508 26.3881 121.897 27.9771 121.897 30.2475Z" fill="currentColor"/>
    <path d="M148.29 25.521L145.54 27.7889C144.678 26.8787 143.757 26.388 142.511 26.388C140.538 26.388 138.958 27.9185 138.958 30.2474C138.958 32.589 140.522 34.1068 142.496 34.1068C143.726 34.1068 144.778 33.5577 145.581 32.6907L148.3 34.9891C146.97 36.6798 144.981 37.6205 142.612 37.6205C138.093 37.6205 135.065 34.4984 135.065 30.25C135.065 26.0168 138.093 22.8794 142.612 22.8794C144.986 22.8769 146.988 23.8302 148.29 25.521Z" fill="currentColor"/>
    <path d="M162.469 25.521L159.719 27.7889C158.857 26.8787 157.936 26.388 156.69 26.388C154.717 26.388 153.137 27.9185 153.137 30.2474C153.137 32.589 154.702 34.1068 156.675 34.1068C157.905 34.1068 158.957 33.5577 159.76 32.6907L162.48 34.9891C161.149 36.6798 159.16 37.6205 156.791 37.6205C152.273 37.6205 149.244 34.4984 149.244 30.25C149.244 26.0168 152.273 22.8794 156.791 22.8794C159.166 22.8769 161.167 23.8302 162.469 25.521Z" fill="currentColor"/>
    <path d="M180.606 32.1339V23.2175H184.424V30.9211C184.424 32.9449 185.448 34.056 187.187 34.056C188.826 34.056 190.185 33.0009 190.185 30.8906V23.2175H194.001V37.2213H190.285V35.5738C189.277 37.0612 187.725 37.5976 186.117 37.5976C182.901 37.5976 180.606 35.3857 180.606 32.1339Z" fill="currentColor"/>
    <path d="M164.52 32.1339V23.2175H168.338V30.9211C168.338 32.9449 169.362 34.056 171.102 34.056C172.741 34.056 174.099 33.0009 174.099 30.8906V23.2175H177.917V37.2213H174.202V35.5738C173.193 37.0612 171.642 37.5976 170.034 37.5976C166.818 37.5976 164.52 35.3857 164.52 32.1339Z" fill="currentColor"/>
    <path d="M48.537 13.5536L36.4108 1.57102C35.2015 0.376066 33.2384 0.376066 32.0265 1.57102L0.914676 32.3143C-0.304892 33.5195 -0.304892 35.4747 0.914676 36.6823C2.13424 37.8874 4.11283 37.8874 5.33497 36.6823L34.2186 8.14074L44.1167 17.9216C45.3363 19.1267 47.3148 19.1267 48.537 17.9216C49.7591 16.7164 49.7591 14.7613 48.537 13.5536Z" fill="#FF6900"/>
    <path d="M91.739 17.9216C92.9586 16.7164 92.9586 14.7613 91.739 13.5536L79.6128 1.57102C78.4035 0.376066 76.4404 0.376066 75.2286 1.57102L46.3269 30.1304L36.4108 20.3318C35.2015 19.1368 33.2384 19.1368 32.0265 20.3318L19.9003 32.3143C18.6808 33.5195 18.6808 35.4747 19.9003 36.6823C21.1199 37.8874 23.0985 37.8874 24.3206 36.6823L34.2187 26.9015L44.1347 36.7001C45.344 37.895 47.3072 37.895 48.519 36.7001L77.4207 8.14074L87.3187 17.9216C88.5409 19.1267 90.5195 19.1267 91.739 17.9216Z" fill="#FF6900"/>
    <path d="M91.7392 32.3143L79.6129 20.3318C78.4037 19.1368 76.4405 19.1368 75.2287 20.3318L63.1024 32.3143C61.8828 33.5194 61.8828 35.4746 63.1024 36.6823C64.3219 37.8874 66.3005 37.8874 67.5227 36.6823L77.4208 26.9015L87.3189 36.6823C88.5385 37.8874 90.5171 37.8874 91.7392 36.6823C92.9588 35.4746 92.9588 33.5194 91.7392 32.3143Z" fill="#FF6900"/>
  </symbol>
  <symbol id="nav" viewBox="0 0 24 22" fill="none" xmlns="http://www.w3.org/2000/svg">
    <circle cx="4.5" cy="4.5" r="4.5" fill="#40748B"/>
    <circle cx="19.5" cy="4.5" r="4.5" fill="#40748B"/>
    <circle cx="19.5" cy="17.5" r="4.5" fill="#40748B"/>
    <circle cx="4.5" cy="17.5" r="4.5" fill="#40748B"/>
  </symbol>
</svg>
